<?xml version="1.0" encoding="utf-8"?>
<!-- Generator: Adobe Illustrator 25.4.1, SVG Export Plug-In . SVG Version: 6.00 Build 0)  -->
<svg version="1.0" id="katman_1" xmlns="http://www.w3.org/2000/svg" xmlns:xlink="http://www.w3.org/1999/xlink" x="0px" y="0px"
	 viewBox="0 0 1024 768" style="enable-background:new 0 0 1024 768;" xml:space="preserve">
<style type="text/css">
	.st0{fill:#fff;}
	.st1{fill:#fff;}
</style>
<path class="st0" d="M825.2,357.2h-95.1c-2.4,0-4.6,1.8-4.9,4.2l-4.6,31.5c-0.5,2.9,1.8,5.6,4.9,5.6H743c1.8,0,2.9,1.8,2.3,3.3
	c-2.1,5-3.8,10.6-4.6,16.5l-8.8,61.1c-5.8,41,28.2,61.3,65.4,61.3c38.8,0,77-20.5,82.8-61.3l8.8-61.1
	C894.3,378.4,861.4,358.1,825.2,357.2z M843.4,418.6l-8.8,59.8c-2,14.1-17.9,20.6-32.6,20.6c-13.7,0-27-6.5-25.2-19.4l8.8-61.1
	c2-13.3,17.9-20.2,32.6-20.2C832.9,398.3,845.5,405.1,843.4,418.6z"/>
<path class="st0" d="M297.5,357.2H262c-2.4,0-4.6,1.8-4.9,4.2l-10.9,77.8v0.2l0.5,30c0,0.6-0.5,1.2-1.1,1.4l-10.2-36.2v-0.2
	l-31.7-74.2c-0.8-1.8-2.6-3-4.6-3h-35.9c-2.4,0-4.6,1.8-4.9,4.2l-24,171.4c-0.5,3,2,5.6,4.9,5.6h35.8c2.4,0,4.6-1.8,4.9-4.2
	l9.4-68.1v-0.2l-0.5-34.9l1.1-0.3l10.8,36.2v0.2l29.6,68.4c0.8,1.8,2.6,3,4.6,3h38.8c2.4,0,4.6-1.8,4.9-4.2l24-171.4
	C303,359.9,300.6,357.2,297.5,357.2z"/>
<path class="st0" d="M375.2,357.2h-35.8c-2.4,0-4.6,1.8-4.9,4.2l-24,171.2c-0.5,3,2,5.6,4.9,5.6h35.8c2.4,0,4.6-1.8,4.9-4.2
	l24-171.2C380.5,359.9,378.2,357.2,375.2,357.2z"/>
<path class="st0" d="M543.1,357.2H409.1c-2.4,0-4.6,1.8-4.9,4.2l-4.7,32c-0.5,3,1.8,5.6,4.9,5.6h37.5c3,0,5.3,2.6,4.9,5.6l-17.6,128
	c-0.5,3,2,5.6,4.9,5.6h36.2c2.4,0,4.6-1.8,4.9-4.2l18-130.7c0.3-2.4,2.4-4.2,4.9-4.2h40.2c2.4,0,4.6-1.8,4.9-4.2l4.7-32
	C548.5,359.9,546.1,357.2,543.1,357.2z"/>
<path class="st0" d="M645.4,357.2h-68.1c-2.4,0-4.6,1.8-4.9,4.2l-24,171.2c-0.5,3,2,5.6,4.9,5.6h36.2c2.4,0,4.6-1.8,4.9-4.2l7-51.1
	c0.2-1.2,1.2-2.1,2.4-2.1h4.7c0.9,0,1.7,0.5,2.1,1.2l34.6,54.1c0.9,1.4,2.4,2.3,4.2,2.3h44.9c3.9,0,6.4-4.6,4.1-7.7l-36.4-52
	c-0.9-1.2-0.5-3,0.9-3.6c23.2-11.4,36.7-22.9,41.1-55.4C709.3,377.2,682.8,357.2,645.4,357.2z M657.9,420.4
	c-1.2,10.5-9.4,20.9-23.5,20.9h-21.1c-3,0-5.3-2.7-4.9-5.6l4.6-31.5c0.3-2.4,2.4-4.2,4.9-4.2h22.6
	C653.8,399.9,659.2,409.5,657.9,420.4z"/>
<path class="st1" d="M296.2,248.7h25.8c6.2,0,11.5,0.9,15.8,2.9c3.9,1.7,7.3,4.6,9.7,8.2c2.1,3.6,3.3,7.7,3.2,11.8
	c0,4.2-1.1,8.3-3.3,12c-2.4,3.8-6.1,6.7-10.2,8.5c-4.6,2.1-10.3,3.2-17,3.2h-24V248.7z M320,283.3c4.2,0,7.4-1.1,9.7-3.2
	c2.3-2.3,3.5-5.3,3.3-8.6c0.2-3-0.9-5.9-3-8c-2-2-5-3-9.1-3h-8v22.8h7.1V283.3z"/>
<path class="st1" d="M389.4,295.1c-3.3-0.9-6.7-2.3-9.7-4.1V280c2.6,2,5.6,3.3,8.6,4.1c3.5,1.1,7,1.5,10.6,1.7
	c1.2,0,2.4-0.2,3.6-0.6c0.8-0.5,1.2-0.9,1.2-1.5c0-0.6-0.2-1.2-0.6-1.7c-0.8-0.6-1.7-0.9-2.6-1.1l-7.9-1.8c-4.6-1.1-7.7-2.6-9.7-4.4
	c-2-2-3-4.7-2.9-7.4c0-2.4,0.9-4.9,2.6-6.7c2-2.1,4.4-3.6,7.1-4.4c3.5-1.1,7.1-1.7,10.9-1.5c3.5,0,6.8,0.3,10.2,1.2
	c2.7,0.6,5.3,1.7,7.7,3v10.5c-2.3-1.4-4.7-2.3-7.1-2.9c-2.7-0.8-5.6-1.1-8.3-1.1c-4.1,0-6.2,0.8-6.2,2.1c0,0.6,0.3,1.2,0.9,1.5
	c1.1,0.5,2.3,0.8,3.5,1.1l6.7,1.2c4.2,0.8,7.6,2.1,9.7,3.9c2.1,1.8,3.2,4.7,3.2,8.3c0,3.9-2,7.6-5.3,9.6c-3.5,2.3-8.5,3.5-15,3.5
	C396.9,296.5,393.1,296,389.4,295.1z"/>
<path class="st1" d="M436.4,293.8c-3.5-1.7-6.5-4.2-8.6-7.6c-2-3.2-2.9-7-2.9-10.8c0-3.8,0.9-7.4,3-10.6c2.1-3.3,5.2-5.8,8.8-7.4
	c4.4-1.8,9.1-2.9,13.8-2.7c6.7,0,12.1,1.4,16.5,4.2V271c-1.7-1.1-3.5-2-5.5-2.6c-2.1-0.6-4.4-1.1-6.7-1.1c-4.1,0-7.3,0.8-9.7,2.3
	c-3.3,1.8-4.4,5.9-2.6,9.3c0.6,1.1,1.5,2,2.6,2.6c2.3,1.5,5.5,2.3,9.9,2.3c2.3,0,4.4-0.3,6.5-0.9c2-0.6,3.8-1.4,5.5-2.4v11.7
	c-5.2,3-10.9,4.6-16.8,4.4C445.5,296.7,440.7,295.7,436.4,293.8z"/>
<path class="st1" d="M483.6,293.8c-3.6-1.7-6.7-4.2-8.8-7.6c-2-3.2-3-7-3-10.8s0.9-7.4,3-10.6c2.1-3.2,5.2-5.8,8.8-7.3
	c8.6-3.5,18.5-3.5,27.1,0c3.5,1.5,6.5,4.1,8.6,7.3c2,3.2,3,7,3,10.6c0,3.8-1.1,7.6-3,10.8c-2.1,3.3-5.2,5.9-8.6,7.6
	C502,297.4,492.3,297.4,483.6,293.8z M503.6,281.9c1.7-1.7,2.6-4.1,2.4-6.4c0.2-2.4-0.8-4.7-2.4-6.4c-1.8-1.7-4.2-2.4-6.7-2.4
	c-2.4-0.2-4.9,0.8-6.7,2.4c-1.7,1.7-2.6,3.9-2.4,6.4c-0.2,2.4,0.8,4.7,2.4,6.4c1.8,1.7,4.2,2.6,6.7,2.4
	C499.5,284.5,502,283.6,503.6,281.9z"/>
<path class="st1" d="M562.2,257.1v14.4c-2-1.2-4.2-1.8-6.5-1.7c-3.5,0-6.2,1.1-8.2,3.2c-1.8,2.1-2.9,5.5-2.9,10v12.1h-16.2v-38.8
	h15.9v12.3c0.9-4.6,2.3-7.9,4.2-10c2-2.1,4.7-3.3,7.6-3.2C558.2,255.4,560.4,256,562.2,257.1z"/>
<path class="st1" d="M616.2,247.4v47.8h-16.2v-8.6c-1.2,3-3.5,5.8-6.2,7.4c-3.2,1.8-6.7,2.7-10.3,2.6c-3.3,0.2-6.7-0.9-9.6-2.7
	c-2.7-1.8-5-4.4-6.4-7.4c-1.5-3.3-2.3-7-2.3-10.6c-0.2-3.8,0.8-7.6,2.3-10.9c1.5-3.2,3.9-5.8,6.8-7.6c3-1.8,6.5-2.7,10-2.7
	c7.7,0,12.9,3.3,15.6,10v-17.1H616.2z M597.5,281.6c1.7-1.7,2.6-3.9,2.4-6.2c0-2.3-0.9-4.6-2.4-6.1c-3.8-3.2-9.3-3.2-13.2,0
	c-1.7,1.7-2.6,3.8-2.4,6.1c-0.2,2.3,0.8,4.6,2.4,6.2c1.8,1.7,4.1,2.4,6.5,2.4C593.4,284.2,595.7,283.3,597.5,281.6z"/>
<path class="st1" d="M236.4,237.2c-7.9-3.5-16.2-6.1-24.9-7.6c-1.2,2.1-2.3,4.2-3.2,6.5c-9.1-1.4-18.5-1.4-27.6,0
	c-0.9-2.3-2-4.4-3.2-6.5c-8.5,1.5-16.8,4.1-24.9,7.7c-15.6,23.2-19.9,45.8-17.7,68.3c9.3,6.8,19.6,12,30.5,15.3
	c2.4-3.3,4.7-6.8,6.5-10.5c-3.5-1.4-7-3-10.3-4.9c0.9-0.6,1.7-1.2,2.6-1.8c19.3,9.1,41.6,9.1,61,0c0.8,0.6,1.7,1.4,2.6,1.8
	c-3.3,2-6.7,3.6-10.3,4.9c1.8,3.6,4.1,7.1,6.5,10.5c10.9-3.3,21.2-8.5,30.5-15.3C256.9,279.7,250,257.2,236.4,237.2z M174.5,291.8
	c-5.9,0-10.9-5.5-10.9-12c0-6.5,4.7-12.1,10.8-12.1c6.1,0,10.9,5.5,10.9,12.1C185.3,286.5,180.6,291.8,174.5,291.8z M214.6,291.8
	c-5.9,0-10.8-5.5-10.8-12c0-6.5,4.7-12.1,10.8-12.1c6.1,0,10.9,5.5,10.8,12.1C225.3,286.5,220.6,291.8,214.6,291.8z"/>
<path class="st1" d="M364.4,260.6c4.4,0,8-3.3,8-7.3c0-4-3.6-7.3-8-7.3s-8,3.3-8,7.3C356.4,257.3,360,260.6,364.4,260.6z"/>
<path class="st1" d="M356.4,265.6c5.2,2.1,11.1,2.1,16.2,0v29.9h-16.2V265.6z"/>
</svg>
