<?xml version="1.0" standalone="no"?>
<!DOCTYPE svg PUBLIC "-//W3C//DTD SVG 20010904//EN"
 "http://www.w3.org/TR/2001/REC-SVG-20010904/DTD/svg10.dtd">
<svg version="1.0" xmlns="http://www.w3.org/2000/svg"
 width="1001.000000pt" height="274.000000pt" viewBox="0 0 1001.000000 274.000000"
 preserveAspectRatio="xMidYMid meet">
<metadata>
Created by potrace 1.16, written by Peter Selinger 2001-2019
</metadata>
<g transform="translate(0.000000,274.000000) scale(0.100000,-0.100000)"
fill="#fff" stroke="none">
<path d="M624 2529 c-15 -17 -43 -198 -171 -1111 -141 -1003 -152 -1093 -138
-1115 l15 -23 264 0 c212 0 266 3 275 14 6 7 37 191 68 407 52 368 56 411 62
648 l6 253 63 -213 c54 -183 90 -277 249 -644 102 -237 194 -439 204 -450 18
-19 35 -20 280 -23 277 -3 299 0 313 45 3 10 73 504 156 1098 150 1073 151
1079 132 1105 l-19 25 -250 3 c-227 2 -252 1 -271 -15 -19 -16 -29 -71 -92
-524 l-70 -507 6 -183 c4 -101 4 -181 1 -178 -4 3 -35 106 -70 230 -58 203
-83 268 -261 685 -108 254 -205 469 -215 478 -15 14 -51 16 -268 16 -240 0
-251 -1 -269 -21z"/>
<path d="M2826 2531 c-14 -15 -47 -230 -167 -1083 -82 -584 -149 -1079 -149
-1099 0 -68 6 -69 284 -69 144 0 255 4 266 10 10 5 21 22 24 37 3 16 73 510
156 1098 148 1055 150 1070 131 1095 l-18 25 -255 3 c-240 2 -256 1 -272 -17z"/>
<path d="M3701 2533 c-17 -15 -25 -49 -51 -222 -35 -238 -36 -253 -12 -274 16
-15 50 -17 275 -17 244 0 258 -1 277 -20 11 -11 20 -26 20 -32 0 -7 -50 -373
-110 -813 -61 -440 -110 -809 -110 -821 0 -11 8 -28 18 -37 16 -15 50 -17 275
-17 275 0 280 1 292 53 2 12 54 385 115 829 61 445 113 815 117 824 11 29 54
34 317 34 196 0 267 3 279 13 14 9 25 57 47 207 16 107 30 213 30 236 0 80 70
74 -897 74 -805 0 -862 -1 -882 -17z"/>
<path d="M5801 2531 c-12 -12 -21 -24 -21 -28 0 -5 -68 -489 -150 -1078 -83
-588 -150 -1079 -150 -1091 0 -11 8 -28 18 -37 16 -15 50 -17 275 -17 275 0
280 1 292 53 2 12 23 161 46 332 43 322 46 335 92 335 10 0 27 -4 37 -10 10
-5 109 -153 220 -327 112 -175 214 -333 227 -350 l24 -33 318 0 c276 0 320 2
331 16 33 38 18 65 -218 403 -128 182 -233 336 -234 342 -2 7 39 36 90 65 124
71 181 114 246 186 199 220 259 664 125 929 -47 95 -146 189 -250 239 -175 83
-176 84 -771 88 -521 3 -527 3 -547 -17z m873 -531 c76 -12 120 -43 151 -104
62 -123 3 -289 -127 -362 -53 -29 -55 -29 -238 -32 -249 -5 -232 -28 -191 253
17 119 34 221 37 226 3 6 16 14 28 19 29 12 268 12 340 0z"/>
<path d="M7710 2530 c-11 -11 -20 -25 -20 -30 0 -6 -14 -101 -30 -213 -33
-219 -32 -239 16 -257 14 -6 76 -10 139 -10 63 0 117 -4 120 -10 3 -5 -6 -47
-19 -92 -36 -116 -146 -886 -146 -1016 0 -175 50 -301 165 -418 152 -154 379
-234 664 -234 268 0 506 70 696 205 82 58 184 169 234 252 74 126 94 208 160
673 65 452 72 562 46 665 -59 225 -248 397 -512 465 -144 37 -207 40 -855 40
-625 0 -638 0 -658 -20z m1219 -511 c129 -20 207 -74 232 -159 11 -35 5 -88
-45 -432 -31 -216 -63 -412 -71 -436 -41 -126 -198 -212 -386 -212 -148 0
-260 55 -301 147 l-19 43 55 392 c31 216 63 417 72 447 30 100 141 180 289
206 90 17 97 17 174 4z"/>
</g>
</svg>
