<svg width="196" height="24" viewBox="0 0 196 24" fill="none" xmlns="http://www.w3.org/2000/svg">
<g clip-path="url(#clip0_14247_99771)">
<path d="M88.7933 0.381839H76.571C76.4196 0.381394 76.2732 0.435535 76.1585 0.534331C76.0438 0.633128 75.9686 0.769955 75.9466 0.919718L75.3511 4.98263C75.3388 5.07203 75.3458 5.16303 75.3714 5.24954C75.3971 5.33604 75.441 5.41607 75.5001 5.48427C75.5592 5.55246 75.6322 5.60725 75.7142 5.64497C75.7961 5.6827 75.8852 5.70248 75.9755 5.703H78.2086C78.2602 5.70385 78.3108 5.71726 78.356 5.74209C78.4012 5.76691 78.4397 5.80239 78.4681 5.84545C78.4965 5.88851 78.5139 5.93785 78.5189 5.98919C78.5239 6.04052 78.5163 6.0923 78.4968 6.14003C78.2083 6.8209 78.0082 7.53587 77.9013 8.26754L76.7679 16.1196C76.0187 21.3784 80.4034 24.0053 85.1722 24.0053C90.1668 24.0053 95.0654 21.3784 95.8146 16.1196L96.948 8.26754C97.6827 3.10966 93.4566 0.482691 88.7933 0.381839ZM91.1417 8.26274L90.0036 15.9467C89.7442 17.7669 87.7032 18.6073 85.8206 18.6073C84.0677 18.6073 82.3484 17.7669 82.5741 16.11L83.7123 8.25793C83.9716 6.53864 86.0127 5.65978 87.8953 5.65978C89.7778 5.65978 91.4011 6.54344 91.1417 8.26274V8.26274Z" fill="white"/>
<path d="M20.9773 0.381837H16.4102C16.2561 0.381721 16.1072 0.437719 15.9915 0.539362C15.8757 0.641005 15.8009 0.781336 15.781 0.934123L14.3787 10.9281L14.4411 14.7941C14.4421 14.8328 14.4298 14.8706 14.4062 14.9012C14.3826 14.9319 14.3491 14.9534 14.3115 14.9622L13.0004 10.3038L8.91826 0.770838C8.86938 0.655775 8.78781 0.557585 8.68366 0.488438C8.57952 0.41929 8.45737 0.382226 8.33235 0.381837H3.71715C3.56254 0.381577 3.41308 0.437407 3.29651 0.53897C3.17993 0.640533 3.10415 0.780933 3.08322 0.934123L2.10641e-05 22.944C-0.0123906 23.0348 -0.00510238 23.1272 0.0213905 23.215C0.0478833 23.3028 0.0929599 23.3838 0.153557 23.4526C0.214154 23.5214 0.288851 23.5764 0.372573 23.6137C0.456294 23.6511 0.547077 23.67 0.638753 23.6691H5.23474C5.38864 23.6696 5.53751 23.6144 5.65398 23.5138C5.77045 23.4132 5.84669 23.274 5.86867 23.1217L7.0741 14.3763V14.3475L7.01167 9.85716L7.14133 9.82355L8.51965 14.482L12.3376 23.2849C12.3867 23.3995 12.4685 23.497 12.5727 23.5653C12.6769 23.6337 12.7989 23.6698 12.9235 23.6691H17.8989C18.0528 23.6696 18.2017 23.6144 18.3182 23.5138C18.4346 23.4132 18.5109 23.274 18.5329 23.1217L21.6113 1.10701C21.6236 1.01658 21.6164 0.924551 21.5902 0.837124C21.564 0.749696 21.5194 0.668902 21.4593 0.600185C21.3992 0.531467 21.3251 0.476422 21.242 0.438757C21.1588 0.401092 21.0686 0.381683 20.9773 0.381837V0.381837Z" fill="white"/>
<path d="M30.9519 0.381837H26.3559C26.2013 0.381577 26.0518 0.437407 25.9353 0.53897C25.8187 0.640533 25.7429 0.780933 25.722 0.934123L22.6436 22.944C22.6312 23.0344 22.6384 23.1264 22.6646 23.2139C22.6908 23.3013 22.7355 23.3821 22.7955 23.4508C22.8556 23.5195 22.9297 23.5746 23.0128 23.6122C23.096 23.6499 23.1862 23.6693 23.2775 23.6691H27.8543C28.0082 23.6696 28.157 23.6144 28.2735 23.5138C28.39 23.4132 28.4662 23.274 28.4882 23.1217L31.5666 1.10701C31.5788 1.01817 31.5721 0.927751 31.547 0.841652C31.5219 0.755554 31.479 0.675702 31.421 0.607295C31.363 0.538887 31.2913 0.483457 31.2105 0.444612C31.1296 0.405767 31.0415 0.384378 30.9519 0.381837V0.381837Z" fill="white"/>
<path d="M52.5392 0.381838H35.3319C35.1791 0.383549 35.0319 0.439569 34.9166 0.539877C34.8014 0.640184 34.7256 0.778233 34.7028 0.929323L34.0977 5.04026C34.0838 5.13079 34.0897 5.22324 34.115 5.31127C34.1402 5.39929 34.1843 5.4808 34.2441 5.55017C34.3039 5.61954 34.378 5.67514 34.4613 5.71313C34.5446 5.75112 34.6352 5.7706 34.7268 5.77024H39.5293C39.6201 5.77077 39.7099 5.79068 39.7924 5.82865C39.875 5.86661 39.9485 5.92175 40.008 5.99039C40.0676 6.05903 40.1118 6.13958 40.1377 6.22667C40.1636 6.31376 40.1707 6.40538 40.1584 6.49542L37.906 22.9488C37.8937 23.0386 37.9007 23.13 37.9267 23.2168C37.9526 23.3037 37.9969 23.3839 38.0566 23.4522C38.1162 23.5205 38.1898 23.5752 38.2723 23.6126C38.3549 23.65 38.4445 23.6693 38.5352 23.6691H43.1936C43.3475 23.6696 43.4963 23.6144 43.6128 23.5138C43.7293 23.4132 43.8055 23.274 43.8275 23.1217L46.1375 6.31292C46.1595 6.16061 46.2357 6.02135 46.3522 5.92076C46.4687 5.82017 46.6175 5.76502 46.7714 5.76544H51.9389C52.092 5.76471 52.2397 5.70903 52.3552 5.60854C52.4706 5.50806 52.5462 5.36945 52.5681 5.21795L53.1684 1.10701C53.1815 1.01685 53.175 0.924921 53.1494 0.837486C53.1238 0.750051 53.0796 0.669166 53.0199 0.600344C52.9602 0.531521 52.8863 0.476378 52.8034 0.438671C52.7205 0.400964 52.6304 0.38158 52.5392 0.381838V0.381838Z" fill="white"/>
<path d="M65.6837 0.381836H56.9287C56.7747 0.38172 56.6258 0.437718 56.51 0.539361C56.3943 0.641005 56.3195 0.781335 56.2996 0.934122L53.2212 22.944C53.2089 23.034 53.216 23.1256 53.2419 23.2127C53.2678 23.2998 53.312 23.3804 53.3716 23.449C53.4311 23.5176 53.5046 23.5728 53.5872 23.6107C53.6698 23.6487 53.7595 23.6686 53.8503 23.6691H58.5184C58.6717 23.6694 58.82 23.6141 58.9356 23.5134C59.0513 23.4128 59.1266 23.2736 59.1475 23.1217L60.0552 16.547C60.0646 16.4698 60.1021 16.3987 60.1606 16.3474C60.219 16.296 60.2943 16.2679 60.3721 16.2685H60.9916C61.0454 16.2685 61.0983 16.2821 61.1454 16.3081C61.1924 16.3342 61.2321 16.3718 61.2606 16.4174L65.6933 23.381C65.7509 23.4713 65.8304 23.5455 65.9245 23.5967C66.0186 23.648 66.1241 23.6745 66.2312 23.6739H71.9942C72.1116 23.6744 72.2269 23.6425 72.3274 23.5818C72.4279 23.521 72.5097 23.4337 72.5638 23.3295C72.6179 23.2252 72.6422 23.1081 72.634 22.991C72.6259 22.8738 72.5856 22.7612 72.5176 22.6654L67.84 15.9851C67.8112 15.9473 67.7913 15.9035 67.7817 15.857C67.7721 15.8104 67.7731 15.7623 67.7846 15.7162C67.7962 15.6701 67.8179 15.6271 67.8483 15.5905C67.8786 15.554 67.9169 15.5247 67.9601 15.5049C70.9424 14.0641 72.6761 12.5562 73.2428 8.3972C73.9056 2.94637 70.4862 0.381836 65.6837 0.381836ZM67.2973 8.49325C67.2216 9.24034 66.8682 9.93177 66.307 10.4307C65.7458 10.9296 65.0178 11.1997 64.267 11.1875H61.5487C61.4576 11.1877 61.3675 11.1683 61.2846 11.1306C61.2016 11.0929 61.1278 11.0378 61.0681 10.9689C61.0084 10.9001 60.9642 10.8192 60.9386 10.7318C60.913 10.6444 60.9065 10.5524 60.9196 10.4623L61.4959 6.40897C61.5168 6.25706 61.5921 6.11787 61.7078 6.0172C61.8234 5.91654 61.9717 5.86121 62.125 5.86148H65.0065C66.7546 5.87589 67.4606 7.09092 67.2973 8.49325Z" fill="white"/>
<path d="M122.324 10.8073C122.252 10.8644 122.193 10.9373 122.152 11.0205C122.112 11.1037 122.09 11.195 122.09 11.2876C122.09 11.3801 122.112 11.4715 122.152 11.5547C122.193 11.6379 122.252 11.7108 122.324 11.7678C124.519 13.4391 124.442 16.0324 123.938 17.6365C122.824 21.3776 120 23.6444 114.842 23.6444H106.044C105.956 23.6445 105.868 23.6257 105.788 23.5893C105.707 23.5529 105.636 23.4997 105.578 23.4333C105.519 23.3669 105.476 23.2888 105.45 23.2043C105.425 23.1198 105.418 23.0308 105.429 22.9432L108.508 0.928587C108.528 0.780501 108.602 0.644962 108.715 0.546985C108.828 0.449008 108.973 0.395205 109.122 0.395509H117.911C122.344 0.395509 125.235 3.05609 124.481 7.4888C124.17 8.81239 123.408 9.98612 122.324 10.8073V10.8073ZM115.38 18.4913C118.929 18.4913 119.52 13.7272 116.038 13.7272H113.156C113.007 13.7271 112.863 13.7811 112.751 13.8791C112.639 13.9772 112.566 14.1126 112.547 14.2603L112.066 17.7902C112.055 17.8777 112.062 17.9667 112.087 18.0512C112.113 18.1357 112.156 18.2138 112.215 18.2802C112.273 18.3466 112.345 18.3998 112.425 18.4362C112.505 18.4726 112.593 18.4914 112.681 18.4913H115.38ZM116.629 9.49144C119.51 9.49144 120.178 5.35169 117.219 5.35169H114.338C114.188 5.35138 114.044 5.40518 113.931 5.50316C113.818 5.60114 113.744 5.73668 113.723 5.88476L113.31 8.76626C113.297 8.85389 113.303 8.94332 113.328 9.02844C113.352 9.11355 113.395 9.19234 113.453 9.25939C113.511 9.32644 113.583 9.38017 113.663 9.41691C113.744 9.45365 113.831 9.47252 113.92 9.47223L116.629 9.49144Z" fill="white"/>
<path d="M144.958 23.6639H139.93C139.79 23.6643 139.654 23.6169 139.544 23.5297C139.434 23.4424 139.357 23.3204 139.325 23.1837L138.629 19.5242C138.603 19.3826 138.528 19.2545 138.418 19.1624C138.307 19.0702 138.168 19.0198 138.024 19.0199H132.741C132.621 19.02 132.503 19.0549 132.403 19.1206C132.302 19.1863 132.223 19.2798 132.174 19.3897L130.431 23.3182C130.383 23.4272 130.304 23.5199 130.204 23.5847C130.105 23.6496 129.988 23.6838 129.869 23.6831H124.942C124.834 23.6861 124.727 23.6606 124.632 23.6091C124.537 23.5577 124.457 23.4822 124.401 23.3902C124.344 23.2982 124.313 23.1929 124.31 23.085C124.307 22.9771 124.333 22.8703 124.384 22.7755L135.142 0.760821C135.193 0.657573 135.272 0.57053 135.369 0.509455C135.467 0.44838 135.579 0.415687 135.694 0.415041H140.165C140.306 0.414712 140.442 0.462047 140.552 0.549296C140.662 0.636544 140.739 0.758535 140.771 0.89529L145.563 22.9003C145.585 22.9916 145.586 23.0866 145.566 23.1782C145.546 23.2698 145.505 23.3556 145.447 23.4292C145.388 23.5027 145.314 23.5621 145.229 23.6027C145.145 23.6434 145.052 23.6643 144.958 23.6639V23.6639ZM137.193 13.7756C137.281 13.7794 137.368 13.7644 137.45 13.7315C137.531 13.6986 137.605 13.6486 137.665 13.5848C137.726 13.5211 137.772 13.4452 137.801 13.3621C137.829 13.279 137.84 13.1907 137.831 13.1032L137.212 6.98486H136.981L134.71 12.9448C134.676 13.0378 134.665 13.1377 134.678 13.2359C134.691 13.3341 134.727 13.4278 134.783 13.5092C134.84 13.5906 134.915 13.6572 135.002 13.7036C135.09 13.7499 135.187 13.7746 135.286 13.7756H137.193Z" fill="white"/>
<path d="M150.467 16.7055C150.59 16.6063 150.747 16.5575 150.904 16.5691C151.062 16.5807 151.21 16.6518 151.317 16.7679C151.882 17.3383 152.556 17.7891 153.298 18.0936C154.041 18.398 154.837 18.5499 155.639 18.5401C157.215 18.5401 158.598 17.983 158.828 16.7679C159.088 15.3272 157.051 14.6981 155.178 14.4387C151.533 13.848 148.253 10.9233 149.074 6.52421C149.963 1.76974 154.16 0.0888672 158.434 0.0888672C161.081 0.0888672 163.549 0.775625 165.499 3.26332C165.552 3.32989 165.59 3.40653 165.612 3.48854C165.635 3.57055 165.64 3.65621 165.628 3.74028C165.615 3.82435 165.586 3.90505 165.542 3.97746C165.497 4.04987 165.439 4.11245 165.369 4.16138L162.051 6.45698C161.936 6.53683 161.798 6.57554 161.658 6.56682C161.519 6.5581 161.386 6.50246 161.282 6.40895C160.294 5.56994 159.044 5.0998 157.748 5.07866C156.269 5.04504 155.02 5.60213 154.866 6.78355C154.703 8.13305 155.884 8.70455 157.656 9.11756C161.695 9.87155 165.638 11.418 164.553 17.1954C163.698 21.7289 159.75 23.9957 154.737 23.9957C152.114 23.9957 148.911 22.7471 147.053 20.2834C146.957 20.1553 146.914 19.9957 146.932 19.837C146.95 19.6782 147.027 19.5322 147.149 19.4285L150.467 16.7055Z" fill="white"/>
<path d="M172.184 23.6639H167.554C167.466 23.664 167.379 23.6452 167.298 23.6088C167.218 23.5724 167.146 23.5192 167.088 23.4528C167.03 23.3864 166.986 23.3083 166.961 23.2238C166.935 23.1393 166.928 23.0503 166.939 22.9628L170.008 0.948118C170.029 0.800033 170.103 0.664494 170.216 0.566516C170.329 0.468539 170.473 0.414737 170.623 0.41504H175.253C175.341 0.414853 175.428 0.433623 175.508 0.470076C175.588 0.506529 175.66 0.559813 175.718 0.626315C175.776 0.692816 175.818 0.770979 175.843 0.855504C175.868 0.94003 175.875 1.02894 175.863 1.1162L172.794 23.1357C172.774 23.2829 172.701 23.4178 172.589 23.5151C172.476 23.6123 172.332 23.6653 172.184 23.6639V23.6639Z" fill="white"/>
<path d="M194.064 18.4437C194.149 18.4847 194.224 18.5446 194.283 18.6189C194.342 18.6932 194.383 18.7799 194.404 18.8725C194.424 18.965 194.423 19.061 194.401 19.1531C194.379 19.2453 194.336 19.3311 194.275 19.4042C191.519 22.9773 188.363 24.0146 185.597 24.0146C181.03 24.0146 176.828 21.354 177.548 16.0665L178.653 8.01267C179.373 2.75874 184.363 0.0693359 189.026 0.0693359C191.744 0.0693359 194.847 1.16431 196.23 4.82381C196.26 4.90011 196.275 4.98165 196.274 5.06377C196.273 5.14589 196.256 5.22697 196.223 5.30236C196.19 5.37776 196.143 5.44599 196.084 5.50314C196.025 5.56029 195.956 5.60525 195.879 5.63543L191.893 7.16263C191.758 7.21191 191.609 7.21304 191.473 7.16582C191.336 7.1186 191.22 7.02591 191.144 6.90329C190.51 5.91398 189.3 5.48655 188.095 5.48655C186.418 5.52017 184.733 6.44705 184.517 8.01267L183.398 16.028C183.167 17.536 184.613 18.4917 186.255 18.4917C186.907 18.5004 187.552 18.3543 188.136 18.0655C188.72 17.7766 189.228 17.3532 189.617 16.8301C189.701 16.7106 189.826 16.6252 189.967 16.5891C190.109 16.553 190.259 16.5686 190.39 16.6331L194.064 18.4437Z" fill="white"/>
</g>
<defs>
<clipPath id="clip0_14247_99771">
<rect width="196" height="24" fill="white"/>
</clipPath>
</defs>
</svg>
