<svg width="97" height="24" viewBox="0 0 97 24" fill="none" xmlns="http://www.w3.org/2000/svg">
<path d="M88.6365 0.393555H76.4685C76.1579 0.393555 75.8863 0.627473 75.8474 0.939364L75.2652 4.99395C75.207 5.36432 75.4981 5.71519 75.8863 5.71519H78.118C78.3509 5.71519 78.4868 5.94911 78.4091 6.14404C78.1374 6.78732 77.924 7.50857 77.8269 8.2688L76.7013 16.1246C75.9639 21.3877 80.311 23.9998 85.0656 23.9998C90.0337 23.9998 94.9242 21.3682 95.6617 16.1246L96.7873 8.2688C97.4859 3.1226 93.2747 0.510514 88.6365 0.393555ZM90.9653 8.28829L89.8397 15.9686C89.5874 17.7815 87.5497 18.6197 85.6672 18.6197C83.9206 18.6197 82.2128 17.7815 82.4457 16.1246L83.5713 8.2688C83.8236 6.5534 85.8613 5.67621 87.7438 5.67621C89.6262 5.67621 91.237 6.5534 90.9653 8.28829Z" fill="white"/>
<path d="M21.1203 0.393555H16.5791C16.2686 0.393555 15.9969 0.627473 15.9581 0.939364L14.5608 10.9394V10.9589L14.619 14.8185C14.619 14.8965 14.5608 14.9745 14.4832 14.9939L13.1829 10.3351V10.3156L9.1269 0.783418C9.02987 0.5495 8.79699 0.393555 8.5447 0.393555H3.94531C3.6348 0.393555 3.36311 0.627473 3.32429 0.939364L0.258032 22.9667C0.199812 23.3565 0.510319 23.6879 0.879047 23.6879H5.45903C5.76954 23.6879 6.04123 23.454 6.08005 23.1421L7.28326 14.3897V14.3702L7.22504 9.88673L7.36089 9.84775L8.73877 14.5066V14.5261L12.5231 23.3175C12.6201 23.5515 12.853 23.7074 13.1053 23.7074H18.0734C18.3839 23.7074 18.6556 23.4735 18.6944 23.1616L21.7607 1.1343C21.8189 0.744433 21.5084 0.393555 21.1203 0.393555Z" fill="white"/>
<path d="M31.0565 0.393555H26.4766C26.1661 0.393555 25.8944 0.627473 25.8555 0.939364L22.7893 22.9472C22.7311 23.337 23.0416 23.6684 23.4103 23.6684H27.9903C28.3008 23.6684 28.5725 23.4345 28.6113 23.1226L31.6776 1.1148C31.7358 0.744433 31.4447 0.393555 31.0565 0.393555Z" fill="white"/>
<path d="M52.5395 0.393555H35.4034C35.0929 0.393555 34.8212 0.627473 34.7824 0.939364L34.1808 5.05242C34.1226 5.44229 34.4137 5.77367 34.8018 5.77367H39.5952C39.9834 5.77367 40.2745 6.10506 40.2163 6.49492L37.9651 22.9472C37.9069 23.337 38.2174 23.6684 38.5861 23.6684H43.2243C43.5348 23.6684 43.8065 23.4345 43.8453 23.1226L46.1547 6.31948C46.1935 6.00759 46.4652 5.77367 46.7757 5.77367H51.9185C52.229 5.77367 52.5007 5.53975 52.5395 5.22786L53.1411 1.1148C53.2382 0.744433 52.9277 0.393555 52.5395 0.393555Z" fill="white"/>
<path d="M65.6394 0.393555H56.9258C56.6153 0.393555 56.3436 0.627473 56.3048 0.939364L53.2385 22.9472C53.1803 23.337 53.4908 23.6684 53.8595 23.6684H58.4977C58.8082 23.6684 59.0799 23.4345 59.1187 23.1226L60.0114 16.5534C60.0309 16.3975 60.1667 16.2805 60.322 16.2805H60.9236C61.04 16.2805 61.137 16.339 61.1953 16.4364L65.62 23.3955C65.7364 23.5709 65.9305 23.6879 66.1634 23.6879H71.9078C72.4123 23.6879 72.7228 23.1031 72.4317 22.6938L67.7741 16.0076C67.6577 15.8516 67.7159 15.6177 67.8906 15.5398C70.8598 14.0778 72.587 12.5963 73.1498 8.42475C73.8096 2.96666 70.4134 0.393555 65.6394 0.393555ZM67.2307 8.52221C67.0755 9.86724 66.0275 11.2123 64.2227 11.2123H61.5252C61.137 11.2123 60.8459 10.8614 60.9042 10.491L61.4864 6.43644C61.5252 6.12455 61.7969 5.89063 62.1074 5.89063H64.999C66.7068 5.89063 67.4054 7.1187 67.2307 8.52221Z" fill="white"/>
</svg>
