<svg width="28" height="28" viewBox="0 0 42 42" fill="none" xmlns="http://www.w3.org/2000/svg">
<path d="M5.97368 29.3727C4.11148 31.2368 3.5 38.5 3.5 38.5C3.5 38.5 10.7646 37.8912 12.6284 36.0271C13.4967 35.1601 13.9411 34.0364 13.9999 32.9007L9.12242 32.8766L9.09694 28C7.9615 28.0588 6.84196 28.5042 5.97368 29.3727Z" fill="white"/>
<path fill-rule="evenodd" clip-rule="evenodd" d="M8.625 23.4759L18.5247 33.3739L20.9996 30.899L22.8558 38.9424L25.9493 35.8489V25.9493L32.1366 19.762C34.6114 17.2873 39.5613 11.3463 37.0863 4.91282C30.6515 2.43783 24.712 7.38776 22.2377 9.86317L8.625 23.4759ZM28.1118 17.3826C30.0448 17.3826 31.6118 15.8156 31.6118 13.8826C31.6118 11.9496 30.0448 10.3826 28.1118 10.3826C26.1787 10.3826 24.6118 11.9496 24.6118 13.8826C24.6118 15.8156 26.1787 17.3826 28.1118 17.3826Z" fill="white"/>
<path d="M16.0502 16.0498H6.15069L3.05713 19.1433L11.1004 20.9995L16.0502 16.0498Z" fill="white"/>
</svg>
