<svg width="21" height="17" viewBox="0 0 21 17" fill="none" xmlns="http://www.w3.org/2000/svg">
<path d="M14.001 17H2.00098C0.897977 17 0.000976562 16.102 0.000976562 15V5H2.00098V15H14.001V17Z" fill="white"/>
<path d="M19.001 0H6.00098C4.89798 0 4.00098 0.896 4.00098 2V11C4.00098 12.102 4.89798 13 6.00098 13H19.001C20.104 13 21.001 12.102 21.001 11V2C21.001 0.896 20.104 0 19.001 0ZM7.00098 10C7.00098 8.159 8.15998 7 10.001 7C8.89598 7 8.00098 6.104 8.00098 5C8.00098 3.896 8.89598 3 10.001 3C11.106 3 12.001 3.896 12.001 5C12.001 6.104 11.105 7 10.001 7C11.842 7 13.001 8.159 13.001 10H7.00098ZM18.001 10H14.001V8H18.001V10ZM18.001 6H14.001V4H18.001V6Z" fill="white"/>
</svg>
