<svg width="22" height="17" viewBox="0 0 22 17" fill="none" xmlns="http://www.w3.org/2000/svg">
<path fill-rule="evenodd" clip-rule="evenodd" d="M1.21 6.11957C1.41517 6.12227 1.61315 6.04401 1.76102 5.90175C1.9089 5.75949 1.99476 5.5647 2 5.35957C1.99484 5.15525 1.9107 4.96089 1.76525 4.8173C1.6198 4.67372 1.42437 4.59209 1.22 4.58957H0.78C0.575634 4.59209 0.380198 4.67372 0.234749 4.8173C0.0893005 4.96089 0.00515866 5.15525 0 5.35957C0.00521665 5.56295 0.0896922 5.75625 0.235409 5.89823C0.381126 6.04021 0.57655 6.11964 0.78 6.11957H1.21ZM17.34 15.3896C18.2826 14.9904 19.1349 14.4048 19.8456 13.6681C20.5563 12.9314 21.1109 12.0587 21.4761 11.1024C21.8412 10.1461 22.0094 9.12583 21.9706 8.1029C21.9317 7.07998 21.6866 6.07544 21.25 5.14957C20.6249 3.85728 19.66 2.75945 18.4585 1.97376C17.2571 1.18808 15.8645 0.744151 14.43 0.68957H6.43C6.26523 0.674419 6.09912 0.693793 5.94227 0.746457C5.78541 0.799121 5.64126 0.883917 5.51902 0.99543C5.39679 1.10694 5.29915 1.24272 5.23234 1.39409C5.16553 1.54547 5.13103 1.70911 5.13103 1.87457C5.13103 2.04003 5.16553 2.20367 5.23234 2.35505C5.29915 2.50642 5.39679 2.6422 5.51902 2.75371C5.64126 2.86522 5.78541 2.95002 5.94227 3.00268C6.09912 3.05535 6.26523 3.07472 6.43 3.05957H8.46C8.56781 3.04722 8.677 3.0578 8.78044 3.09061C8.88387 3.12343 8.97919 3.17773 9.06017 3.24996C9.14115 3.32219 9.20594 3.41072 9.25031 3.50975C9.29467 3.60877 9.31761 3.71606 9.31761 3.82457C9.31761 3.93308 9.29467 4.04037 9.25031 4.13939C9.20594 4.23842 9.14115 4.32695 9.06017 4.39918C8.97919 4.47141 8.88387 4.52572 8.78044 4.55853C8.677 4.59134 8.56781 4.60192 8.46 4.58957H3.41C3.20485 4.58955 3.00796 4.67036 2.86196 4.81448C2.71597 4.9586 2.63263 5.15444 2.63 5.35957C2.6313 5.46069 2.65252 5.56056 2.69242 5.65349C2.73233 5.74641 2.79015 5.83056 2.86258 5.90113C2.93501 5.97171 3.02064 6.02732 3.11456 6.0648C3.20849 6.10228 3.30888 6.12089 3.41 6.11957H7C7.10112 6.11957 7.20125 6.13949 7.29467 6.17818C7.38809 6.21688 7.47297 6.2736 7.54447 6.3451C7.61597 6.4166 7.67269 6.50148 7.71139 6.5949C7.75008 6.68832 7.77 6.78845 7.77 6.88957C7.77 6.99069 7.75008 7.09082 7.71139 7.18424C7.67269 7.27766 7.61597 7.36254 7.54447 7.43404C7.47297 7.50554 7.38809 7.56226 7.29467 7.60096C7.20125 7.63965 7.10112 7.65957 7 7.65957H4.76C4.65888 7.65825 4.55849 7.67686 4.46456 7.71434C4.37064 7.75182 4.28501 7.80743 4.21258 7.87801C4.14015 7.94858 4.08233 8.03273 4.04242 8.12565C4.00252 8.21858 3.9813 8.31845 3.98 8.41957C3.98263 8.6247 4.06597 8.82054 4.21196 8.96466C4.35796 9.10878 4.55485 9.18959 4.76 9.18957H6.32C6.41096 10.0348 6.64071 10.8592 7 11.6296C7.90234 13.4722 9.4837 14.8933 11.4119 15.5945C13.34 16.2956 15.4649 16.2222 17.34 15.3896ZM10.07 10.1996C9.82409 9.67425 9.68597 9.10496 9.66382 8.52535C9.64166 7.94574 9.73592 7.36757 9.94101 6.825C10.1461 6.28244 10.4579 5.78649 10.8579 5.36647C11.2579 4.94645 11.7381 4.61087 12.27 4.37957C13.3442 3.88976 14.5678 3.8417 15.6771 4.24576C16.7864 4.64982 17.6925 5.47363 18.2 6.53957C18.4445 7.06512 18.5815 7.63423 18.603 8.21348C18.6244 8.79272 18.5299 9.37041 18.3249 9.91261C18.12 10.4548 17.8087 10.9506 17.4095 11.3708C17.0102 11.791 16.531 12.1272 16 12.3596C14.9255 12.8467 13.7028 12.8934 12.5942 12.4896C11.4857 12.0858 10.5795 11.2637 10.07 10.1996Z" fill="white"/>
</svg>
