<svg width="24" height="24" viewBox="0 0 24 24" fill="none" xmlns="http://www.w3.org/2000/svg">
<path d="M18.5 1.75C19.052 1.75 19.5 2.197 19.5 2.75V3.75L22.5 2.75V6.75L19.5 5.75V6.75C19.5 7.303 19.052 7.75 18.5 7.75H14.5C13.948 7.75 13.5 7.303 13.5 6.75V2.75C13.5 2.197 13.948 1.75 14.5 1.75H18.5Z" fill="white"/>
<path d="M19.5 14.25V9.75H21.5V16.25C21.5 17.354 20.603 18.25 19.5 18.25H12.5V20.25H16.5V22.25H6.5V20.25H10.5V18.25H3.5C2.397 18.25 1.5 17.354 1.5 16.25V5.25C1.5 4.147 2.397 3.25 3.5 3.25H11.5V5.25H3.5V14.25H19.5Z" fill="white"/>
</svg>
